<svg width="45" height="45" xmlns="http://www.w3.org/2000/svg">

 <g>
  <title>background</title>
  <rect fill="none" id="canvas_background" height="47" width="47" y="-1" x="-1"/>
 </g>
 <g>
  <title>Layer 1</title>
  <g stroke="null" transform="matrix(0.0721366993431375,0.0721366993431375,-0.0721366993431375,0.0721366993431375,22.414270923682793,-9.62078790697728) " id="svg_1">
   <g stroke="null" id="svg_2">
    <path stroke="null" id="svg_3" fill="#00A99D" class="active-path" d="m362.168484,84.228105c-11.384878,-11.387711 -25.101684,-17.082628 -41.139796,-17.082628l-194.093866,0c-16.038112,0 -29.754917,5.694918 -41.144753,17.082628c-11.387711,11.389835 -17.082628,25.105933 -17.082628,41.144753l0,194.091742c0,16.037403 5.694918,29.754917 17.082628,41.144753c11.389835,11.389835 25.106641,17.084753 41.144753,17.084753l194.091742,0c16.038112,0 29.754917,-5.694918 41.139796,-17.084753c11.389835,-11.389835 17.084753,-25.106641 17.084753,-41.144753l0,-194.091742c-0.000708,-16.03882 -5.695626,-29.757042 -17.082628,-41.144753z"/>
   </g>
  </g>
  <g stroke="null" id="svg_24">
   <g stroke="null" transform="matrix(0.03815517350732068,0,0,0.03815517350732068,2.332585542300375,10.807084015028622) " id="svg_18">
    <g stroke="null" id="svg_19">
     <g stroke="null" id="svg_20">
      <path stroke="null" id="svg_21" fill="#FFFFFF" class="active-path" d="m587.605406,374.173828c0,4.949 -1.811,9.236 -5.424,12.847c-3.617,3.621 -7.902,5.428 -12.851,5.428l-91.361,0c-4.952,0 -9.233,-1.807 -12.85,-5.428c-3.616,-3.61 -5.424,-7.897 -5.424,-12.847l0,-45.679l-191.86,0l0,137.044c0,12.56 4.471,23.312 13.418,32.257c8.945,8.946 19.701,13.419 32.264,13.419l420.266,0c12.56,0 23.315,-4.473 32.261,-13.419c8.949,-8.945 13.418,-19.697 13.418,-32.257l0,-137.044l-191.857,0l0,45.679l0,0z"/>
      <rect stroke="null" id="svg_22" fill="#FFFFFF" class="active-path" height="36.545" width="73.096" y="328.494828" x="487.101406"/>
      <path stroke="null" id="svg_23" fill="#FFFFFF" class="active-path" d="m766.043406,159.188828c-8.945,-8.947 -19.701,-13.418 -32.261,-13.418l-100.501,0l0,-45.683c0,-7.614 -2.663,-14.084 -7.994,-19.414c-5.325,-5.327 -11.8,-7.993 -19.411,-7.993l-164.452,0c-7.612,0 -14.083,2.666 -19.414,7.993s-7.994,11.799 -7.994,19.414l0,45.683l-100.499,0c-12.562,0 -23.318,4.471 -32.264,13.418c-8.947,8.946 -13.418,19.696 -13.418,32.259l0,109.636l511.626,0l0,-109.636c0,-12.563 -4.468,-23.313 -13.418,-32.259zm-169.304,-13.418l-146.179,0l0,-36.547l146.179,0l0,36.547z"/>
     </g>
    </g>
   </g>
  </g>
 </g>
</svg>