<svg width="45" height="45" xmlns="http://www.w3.org/2000/svg">

 <g>
  <title>background</title>
  <rect fill="none" id="canvas_background" height="47" width="47" y="-1" x="-1"/>
 </g>
 <g>
  <title>Layer 1</title>
  <g stroke="null" id="svg_1">
   <path stroke="null" id="svg_2" fill="#00A99D" class="active-path" d="m22.583333,44.666667c-5.898572,0 -11.44434,-2.29709 -15.615292,-6.468042c-4.170952,-4.170952 -6.468042,-9.71672 -6.468042,-15.615292s2.29709,-11.44434 6.468042,-15.615292c4.170952,-4.170952 9.71672,-6.468042 15.615292,-6.468042s11.44434,2.29709 15.615292,6.468042c4.170952,4.170952 6.468042,9.71672 6.468042,15.615292s-2.29709,11.44434 -6.468042,15.615292c-4.170952,4.170952 -9.71672,6.468042 -15.615292,6.468042zm0,-40.716147c-10.274061,0 -18.632813,8.358752 -18.632813,18.632813s8.358752,18.632813 18.632813,18.632813s18.632813,-8.358752 18.632813,-18.632813s-8.358752,-18.632813 -18.632813,-18.632813zm11.928896,15.69987l-2.439963,-2.439963l-9.488933,9.488933l-9.488933,-9.488933l-2.439963,2.439963l11.928896,11.928896l11.928896,-11.928896zm0,0"/>
  </g>
 </g>
</svg>