<svg width="28" height="15" xmlns="http://www.w3.org/2000/svg">
 <g>
  <title>background</title>
  <rect x="-1" y="-1" width="30" height="17" id="canvas_background" fill="none"/>
 </g>

 <g>
  <title>Layer 1</title>
  <g transform="rotate(180 13.899898529052734,7.487834930419922) " stroke="null" id="svg_10">
   <g stroke="null" id="svg_1" transform="matrix(0.02409975424204394,0.02409975424204394,-0.02409975424204394,0.02409975424204394,5.51451174197479,-7.157987360847572) ">
    <g stroke="null" id="svg_2">
     <path stroke="null" d="m511.55565,96.158307c-12.49003,-12.49315 -27.53836,-18.74089 -45.13334,-18.74089l-212.93504,0c-17.59497,0 -32.6433,6.24774 -45.13878,18.74089c-12.49314,12.49547 -18.74088,27.54302 -18.74088,45.13877l0,212.93272c0,17.59419 6.24774,32.6433 18.74088,45.13877c12.49548,12.49548 27.54381,18.74322 45.13878,18.74322l212.93271,0c17.59497,0 32.64331,-6.24774 45.13334,-18.74322c12.49548,-12.49547 18.74321,-27.5438 18.74321,-45.13877l0,-212.93272c-0.00077,-17.59574 -6.24851,-32.64563 -18.74088,-45.13877z" class="active-path" fill="#00A99D" id="svg_3"/>
    </g>
   </g>
   <g stroke="null" id="svg_6" transform="matrix(0.02409975424204394,0.02409975424204394,-0.02409975424204394,0.02409975424204394,7.6976469578014095,-12.471155157576007) " opacity="0.7">
    <g stroke="null" id="svg_5">
     <path stroke="null" d="m707.29429,120.001677c-10.4742,-10.47681 -23.09381,-15.7162 -37.84903,-15.7162l-178.56836,0c-14.75523,0 -27.37483,5.23939 -37.8536,15.7162c-10.47681,10.47877 -15.71619,23.09771 -15.71619,37.8536l0,178.5664c0,14.75458 5.23938,27.37484 15.71619,37.8536c10.47877,10.47877 23.09837,15.71815 37.8536,15.71815l178.5664,0c14.75523,0 27.37483,-5.23938 37.84904,-15.71815c10.47877,-10.47876 15.71815,-23.09836 15.71815,-37.8536l0,-178.5664c-0.00065,-14.75589 -5.24003,-27.37679 -15.7162,-37.8536z" class="active-path" fill="#00A99D" id="svg_4"/>
    </g>
   </g>
   <g stroke="null" id="svg_9" transform="matrix(0.02409975424204394,0.02409975424204394,-0.02409975424204394,0.02409975424204394,9.630939707274049,-17.17636643525512) " opacity="0.4">
    <g stroke="null" id="svg_8">
     <path stroke="null" d="m875.29128,146.459277c-8.24878,-8.25083 -18.18714,-12.37703 -29.80737,-12.37703l-140.62849,0c-11.62023,0 -21.55859,4.1262 -29.81097,12.37703c-8.25083,8.25237 -12.37702,18.19021 -12.37702,29.81096l0,140.62696c0,11.61972 4.12619,21.55859 12.37702,29.81096c8.25238,8.25238 18.19074,12.37857 29.81097,12.37857l140.62695,0c11.62023,0 21.55859,-4.12619 29.80737,-12.37857c8.25239,-8.25237 12.37857,-18.19073 12.37857,-29.81096l0,-140.62696c-0.00052,-11.62075 -4.1267,-21.56012 -12.37703,-29.81096z" class="active-path" fill="#00A99D" id="svg_7"/>
    </g>
   </g>
  </g>
 </g>
</svg>