<svg width="45" height="45" xmlns="http://www.w3.org/2000/svg">
 <g>
  <title>background</title>
  <rect x="-1" y="-1" width="47" height="47" id="canvas_background" fill="none"/>
 </g>

 <g>
  <title>Layer 1</title>
  <g id="svg_1">
   <g id="svg_3" stroke="null"/>
   <g id="svg_4" stroke="null"/>
   <g id="svg_5" stroke="null"/>
   <g id="svg_6" stroke="null"/>
   <g id="svg_7" stroke="null"/>
   <g id="svg_8" stroke="null"/>
   <g id="svg_9" stroke="null"/>
   <g id="svg_10" stroke="null"/>
   <g id="svg_11" stroke="null"/>
   <g id="svg_12" stroke="null"/>
   <g id="svg_13" stroke="null"/>
   <g id="svg_14" stroke="null"/>
   <g id="svg_15" stroke="null"/>
   <g id="svg_16" stroke="null"/>
   <g id="svg_17" stroke="null"/>
   <g stroke="null" transform="rotate(45 22.58098602294922,22.540809631347656) " id="svg_44">
    <g stroke="null" id="svg_41" transform="matrix(0.07752848367540659,0,0,0.07752848367540659,-5.061920586272212,-4.548063128159146) ">
     <g stroke="null" id="svg_42">
      <path stroke="null" d="m551.693606,154.259894c-16.077,-16.081 -35.447,-24.123 -58.095,-24.123l-274.087,0c-22.648,0 -42.018,8.042 -58.102,24.123c-16.081,16.084 -24.123,35.453 -24.123,58.102l0,274.084c0,22.647 8.042,42.018 24.123,58.102c16.084,16.084 35.454,24.126 58.102,24.126l274.084,0c22.648,0 42.018,-8.042 58.095,-24.126c16.084,-16.084 24.126,-35.454 24.126,-58.102l0,-274.084c-0.001,-22.649 -8.043,-42.021 -24.123,-58.102z" class="active-path" fill="#00A99D" id="svg_43"/>
     </g>
    </g>
   </g>
   <g stroke="null" transform="rotate(-90 22.265972137451175,21.540225982666016) " id="svg_27">
    <g stroke="null" id="svg_24" transform="matrix(0.045113880286427786,0,0,0.045113880286427786,-56.816461360852074,-62.229285844050665) ">
     <g stroke="null" id="svg_25">
      <g stroke="null" id="svg_22">
       <path stroke="null" d="m1628.239333,1672.929818c2.979,-1.724 6.313,-2.588 9.652,-2.588c3.33,0 6.663,0.864 9.655,2.588l230.116,167.2c5.963,3.445 9.656,9.823 9.656,16.719c0,6.895 -3.683,13.272 -9.656,16.713l-230.116,167.207c-5.972,3.441 -13.334,3.441 -19.302,0c-5.973,-3.453 -9.66,-9.833 -9.66,-16.724l0,-334.398c0,-6.892 3.681,-13.269 9.655,-16.717z" class="active-path" fill="#FFFFFF" id="svg_26"/>
      </g>
     </g>
    </g>
   </g>
   <g id="svg_28">
    <g id="svg_20" transform="matrix(0.00045272448958777467,0,0,0.00045272448958777467,0,0) ">
     <g id="svg_21">
      <path d="m414.41,24.123c-16.077,-16.081 -35.447,-24.123 -58.095,-24.123l-274.087,0c-22.648,0 -42.018,8.042 -58.102,24.123c-16.081,16.084 -24.123,35.453 -24.123,58.102l0,274.084c0,22.647 8.042,42.018 24.123,58.102c16.084,16.084 35.454,24.126 58.102,24.126l274.084,0c22.648,0 42.018,-8.042 58.095,-24.126c16.084,-16.084 24.126,-35.454 24.126,-58.102l0,-274.084c-0.001,-22.649 -8.043,-42.021 -24.123,-58.102z" class="active-path" fill="#00A99D" id="svg_23"/>
     </g>
    </g>
   </g>
  </g>
 </g>
</svg>