<svg width="28" height="28" xmlns="http://www.w3.org/2000/svg">
 <g>
  <title>background</title>
  <rect fill="none" id="canvas_background" height="30" width="30" y="-1" x="-1"/>
 </g>

 <g>
  <title>Layer 1</title>
  <g id="svg_45">
   <g stroke="null" id="svg_3"/>
   <g stroke="null" id="svg_4"/>
   <g stroke="null" id="svg_5"/>
   <g stroke="null" id="svg_6"/>
   <g stroke="null" id="svg_7"/>
   <g stroke="null" id="svg_8"/>
   <g stroke="null" id="svg_9"/>
   <g stroke="null" id="svg_10"/>
   <g stroke="null" id="svg_11"/>
   <g stroke="null" id="svg_12"/>
   <g stroke="null" id="svg_13"/>
   <g stroke="null" id="svg_14"/>
   <g stroke="null" id="svg_15"/>
   <g stroke="null" id="svg_16"/>
   <g stroke="null" id="svg_17"/>
   <g stroke="null" id="svg_44">
    <g stroke="null" transform="matrix(0.06355393766744098,0,0,0.06355393766744098,0.0030650681729702187,0.1482646195245666) " id="svg_41">
     <g stroke="null" id="svg_42">
      <path stroke="null" id="svg_43" fill="#00A99D" class="active-path" d="m415.342178,22.36875c-16.077,-16.081 -35.447,-24.123 -58.095,-24.123l-274.087,0c-22.648,0 -42.018,8.042 -58.102,24.123c-16.081,16.084 -24.123,35.453 -24.123,58.102l0,274.084c0,22.647 8.042,42.018 24.123,58.102c16.084,16.084 35.454,24.126 58.102,24.126l274.084,0c22.648,0 42.018,-8.042 58.095,-24.126c16.084,-16.084 24.126,-35.454 24.126,-58.102l0,-274.084c-0.001,-22.649 -8.043,-42.021 -24.123,-58.102z"/>
     </g>
    </g>
   </g>
   <g stroke="null" id="svg_27">
    <g stroke="null" transform="matrix(0.033950426757543534,0,0,0.033950426757543534,-38.19103085662175,-39.727438783217686) " id="svg_24">
     <g stroke="null" id="svg_25">
      <g stroke="null" id="svg_22">
       <path stroke="null" id="svg_26" fill="#FFFFFF" class="active-path" d="m1422.810003,1399.795193c2.979,-1.724 6.313,-2.588 9.652,-2.588c3.33,0 6.663,0.864 9.655,2.588l230.116,167.2c5.963,3.445 9.656,9.823 9.656,16.719c0,6.895 -3.683,13.272 -9.656,16.713l-230.116,167.207c-5.972,3.441 -13.334,3.441 -19.302,0c-5.973,-3.453 -9.66,-9.833 -9.66,-16.724l0,-334.398c0,-6.892 3.681,-13.269 9.655,-16.717z"/>
      </g>
     </g>
    </g>
   </g>
   <g id="svg_28">
    <g transform="matrix(0.00045272448958777467,0,0,0.00045272448958777467,0,0) " id="svg_20">
     <g id="svg_21">
      <path id="svg_23" fill="#00A99D" class="active-path" d="m414.41,24.123c-16.077,-16.081 -35.447,-24.123 -58.095,-24.123l-274.087,0c-22.648,0 -42.018,8.042 -58.102,24.123c-16.081,16.084 -24.123,35.453 -24.123,58.102l0,274.084c0,22.647 8.042,42.018 24.123,58.102c16.084,16.084 35.454,24.126 58.102,24.126l274.084,0c22.648,0 42.018,-8.042 58.095,-24.126c16.084,-16.084 24.126,-35.454 24.126,-58.102l0,-274.084c-0.001,-22.649 -8.043,-42.021 -24.123,-58.102z"/>
     </g>
    </g>
   </g>
  </g>
 </g>
</svg>