<svg width="45" height="45" xmlns="http://www.w3.org/2000/svg">

 <g>
  <title>background</title>
  <rect fill="none" id="canvas_background" height="47" width="47" y="-1" x="-1"/>
 </g>
 <g>
  <title>Layer 1</title>
  <g stroke="null" id="svg_13">
   <g stroke="null" transform="matrix(0.0721366993431375,0.0721366993431375,-0.0721366993431375,0.0721366993431375,22.414270923682793,-9.62078790697728) " id="svg_1">
    <g stroke="null" id="svg_2">
     <path stroke="null" id="svg_3" fill="#00A99D" class="active-path" d="m362.168484,84.228105c-11.384878,-11.387711 -25.101684,-17.082628 -41.139796,-17.082628l-194.093866,0c-16.038112,0 -29.754917,5.694918 -41.144753,17.082628c-11.387711,11.389835 -17.082628,25.105933 -17.082628,41.144753l0,194.091742c0,16.037403 5.694918,29.754917 17.082628,41.144753c11.389835,11.389835 25.106641,17.084753 41.144753,17.084753l194.091742,0c16.038112,0 29.754917,-5.694918 41.139796,-17.084753c11.389835,-11.389835 17.084753,-25.106641 17.084753,-41.144753l0,-194.091742c-0.000708,-16.03882 -5.695626,-29.757042 -17.082628,-41.144753z"/>
    </g>
   </g>
   <g stroke="null" transform="matrix(-0.10201669855589539,0,0,-0.10201669855589539,43.23805723949713,45.949072731162104) " id="svg_12">
    <g stroke="null" transform="matrix(0.38815442311363907,0,0,0.38815442311363907,-870.9351777223278,-778.7749490151188) " id="svg_8">
     <g stroke="null" id="svg_9">
      <g stroke="null" id="svg_10">
       <path stroke="null" id="svg_11" fill="#FFFFFF" class="active-path" d="m2995.178719,2369.413501c-64.336,-64.336 -169.013,-64.335 -233.349,0.001c-43.945,43.945 -59.209,108.706 -40.181,167.461l-185.822,185.823c-2.813,2.813 -4.395,6.621 -4.395,10.606l0,84.858c0,8.291 6.709,15 15,15l84.858,0c3.984,0 7.793,-1.582 10.605,-4.395l21.211,-21.226c3.237,-3.237 4.819,-7.778 4.292,-12.334l-2.637,-22.793l31.582,-2.974c7.178,-0.674 12.847,-6.343 13.521,-13.521l2.974,-31.582l22.793,2.651c4.233,0.571 8.496,-0.85 11.704,-3.691c3.193,-2.856 5.024,-6.929 5.024,-11.206l0,-27.929l27.422,0c3.984,0 7.793,-1.582 10.605,-4.395l38.467,-37.958c58.74,19.043 122.381,4.929 166.326,-39.046c64.336,-64.335 64.336,-169.014 0,-233.35zm-42.435,106.07c-17.549,17.549 -46.084,17.549 -63.633,0s-17.549,-46.084 0,-63.633s46.084,-17.549 63.633,0s17.548,46.084 0,63.633z"/>
      </g>
     </g>
    </g>
   </g>
  </g>
 </g>
</svg>