<svg width="28" height="28" xmlns="http://www.w3.org/2000/svg">
 <g>
  <title>background</title>
  <rect x="-1" y="-1" width="30" height="30" id="canvas_background" fill="none"/>
 </g>

 <g>
  <title>Layer 1</title>
  <g stroke="null" id="svg_1">
   <g stroke="null" id="svg_61">
    <g stroke="null" id="svg_58" transform="matrix(0.06322392564386306,0,0,0.06322392564386306,-108.77988481901201,-108.81866282881957) ">
     <g stroke="null" id="svg_59">
      <path stroke="null" d="m2137.412819,1745.709825c-16.077,-16.081 -35.447,-24.123 -58.095,-24.123l-274.087,0c-22.648,0 -42.018,8.042 -58.102,24.123c-16.081,16.084 -24.123,35.453 -24.123,58.102l0,274.084c0,22.647 8.042,42.018 24.123,58.102c16.084,16.084 35.454,24.126 58.102,24.126l274.084,0c22.648,0 42.018,-8.042 58.095,-24.126c16.084,-16.084 24.126,-35.454 24.126,-58.102l0,-274.084c-0.001,-22.649 -8.043,-42.021 -24.123,-58.102z" class="active-path" fill="#F9F9F9" id="svg_60"/>
     </g>
    </g>
   </g>
   <g stroke="null" id="svg_3"/>
   <g stroke="null" id="svg_4"/>
   <g stroke="null" id="svg_5"/>
   <g stroke="null" id="svg_6"/>
   <g stroke="null" id="svg_7"/>
   <g stroke="null" id="svg_8"/>
   <g stroke="null" id="svg_9"/>
   <g stroke="null" id="svg_10"/>
   <g stroke="null" id="svg_11"/>
   <g stroke="null" id="svg_12"/>
   <g stroke="null" id="svg_13"/>
   <g stroke="null" id="svg_14"/>
   <g stroke="null" id="svg_15"/>
   <g stroke="null" id="svg_16"/>
   <g stroke="null" id="svg_17"/>
   <g stroke="null" id="svg_45" transform="matrix(-0.06392426249630978,0,0,-0.06392426249630978,30.674710009492582,30.03569826156635) ">
    <g stroke="null" id="svg_42" transform="matrix(0.5294152956778847,0,0,0.5299502227139324,-531.0896355238284,-536.5481422034504) ">
     <g stroke="null" id="svg_43">
      <g stroke="null" id="svg_40">
       <path stroke="null" d="m1361.186912,1304.566059c2.979,-1.724 6.313,-2.588 9.652,-2.588c3.33,0 6.663,0.864 9.655,2.588l230.116,167.2c5.963,3.445 9.656,9.823 9.656,16.719c0,6.895 -3.683,13.272 -9.656,16.713l-230.116,167.207c-5.972,3.441 -13.334,3.441 -19.302,0c-5.973,-3.453 -9.66,-9.833 -9.66,-16.724l0,-334.398c0,-6.892 3.681,-13.269 9.655,-16.717z" class="active-path" fill="#00A99D" id="svg_44"/>
      </g>
     </g>
    </g>
   </g>
  </g>
 </g>
</svg>