<svg width="45" height="45" xmlns="http://www.w3.org/2000/svg">

 <g>
  <title>background</title>
  <rect fill="none" id="canvas_background" height="47" width="47" y="-1" x="-1"/>
 </g>
 <g>
  <title>Layer 1</title>
  <g transform="rotate(45 22.5,22.50000190734863) " id="svg_46">
   <g transform="matrix(0.07487900010291071,0,0,0.07487900010291071,0,0) " id="svg_29">
    <path id="svg_30" d="m495.626774,105.339286c-16.077,-16.081 -35.447,-24.123 -58.095,-24.123l-274.087,0c-22.648,0 -42.018,8.042 -58.102,24.123c-16.081,16.084 -24.123,35.453 -24.123,58.102l0,274.084c0,22.647 8.042,42.018 24.123,58.102c16.084,16.084 35.454,24.126 58.102,24.126l274.084,0c22.648,0 42.018,-8.042 58.095,-24.126c16.084,-16.084 24.126,-35.454 24.126,-58.102l0,-274.084c-0.001,-22.649 -8.043,-42.021 -24.123,-58.102z"/>
   </g>
   <g transform="matrix(0.07487900010291071,0,0,0.07487900010291071,0,0) " id="svg_31"/>
   <g transform="matrix(0.07487900010291071,0,0,0.07487900010291071,0,0) " id="svg_32"/>
   <g transform="matrix(0.07487900010291071,0,0,0.07487900010291071,0,0) " id="svg_33"/>
   <g transform="matrix(0.07487900010291071,0,0,0.07487900010291071,0,0) " id="svg_34"/>
   <g transform="matrix(0.07487900010291071,0,0,0.07487900010291071,0,0) " id="svg_35"/>
   <g transform="matrix(0.07487900010291071,0,0,0.07487900010291071,0,0) " id="svg_36"/>
   <g transform="matrix(0.07487900010291071,0,0,0.07487900010291071,0,0) " id="svg_37"/>
   <g transform="matrix(0.07487900010291071,0,0,0.07487900010291071,0,0) " id="svg_38"/>
   <g transform="matrix(0.07487900010291071,0,0,0.07487900010291071,0,0) " id="svg_39"/>
   <g transform="matrix(0.07487900010291071,0,0,0.07487900010291071,0,0) " id="svg_40"/>
   <g transform="matrix(0.07487900010291071,0,0,0.07487900010291071,0,0) " id="svg_41"/>
   <g transform="matrix(0.07487900010291071,0,0,0.07487900010291071,0,0) " id="svg_42"/>
   <g transform="matrix(0.07487900010291071,0,0,0.07487900010291071,0,0) " id="svg_43"/>
   <g transform="matrix(0.07487900010291071,0,0,0.07487900010291071,0,0) " id="svg_44"/>
   <g transform="matrix(0.07487900010291071,0,0,0.07487900010291071,0,0) " id="svg_45"/>
  </g>
  <g stroke="null" id="svg_81">
   <g stroke="null" transform="matrix(0.05699266734347306,0,0,0.05699266734347306,1.639957584128016,3.8599225641438384) " id="svg_77">
    <g stroke="null" id="svg_78">
     <path stroke="null" id="svg_79" fill="#FFFFFF" class="active-path" d="m256.194221,298.247671c4.284,-26.928 37.944,-55.692 64.26,-56.304c1.836,0 3.672,-0.612 4.896,-1.836c1.224,-0.612 2.448,-1.224 3.06,-3.06c9.18,-17.136 4.284,-30.6 -11.016,-41.616c-17.748,-12.852 -45.9,0 -59.976,11.628c-35.496,29.376 -71.604,80.171 -69.768,128.52c-6.12,32.437 -4.896,67.32 4.284,96.084c6.12,18.36 23.868,27.54 42.228,28.764c18.36,1.225 56.304,6.732 72.828,-4.283c16.524,-11.017 17.748,-32.437 19.584,-50.796c1.836,-20.196 7.344,-58.141 -9.792,-74.053c-17.136,-15.3 -66.096,1.224 -60.588,-33.048z"/>
     <path stroke="null" id="svg_80" fill="#FFFFFF" class="active-path" d="m458.154221,298.247671c4.284,-26.928 37.943,-55.692 64.26,-56.304c1.836,0 3.672,-0.612 4.896,-1.836c1.225,-0.612 2.448,-1.224 3.061,-3.06c9.18,-17.136 4.284,-30.6 -11.016,-41.616c-17.748,-12.852 -45.9,0 -59.977,11.628c-35.496,29.376 -71.604,80.172 -69.768,128.52c-6.12,32.437 -4.896,67.32 4.283,96.084c6.12,18.36 23.868,27.54 42.229,28.764c18.36,1.225 56.304,6.732 72.828,-4.283c16.523,-11.017 17.748,-32.437 19.584,-50.796c1.836,-20.196 7.344,-58.141 -9.792,-74.053c-17.136,-15.3 -66.708,1.224 -60.588,-33.048z"/>
    </g>
   </g>
  </g>
 </g>
</svg>